<svg preserveAspectRatio="none" width="100%" height="100%" overflow="visible" style="display: block;" viewBox="0 0 60 20" fill="none" xmlns="http://www.w3.org/2000/svg">
<g id="SVG" clip-path="url(#clip0_2_41)">
<path id="Vector" d="M1.49678 11.1919C1.69402 9.84414 2.14535 8.644 2.85076 7.5915C3.55617 6.53899 4.46014 5.72389 5.56266 5.14633C6.66491 4.55587 7.90294 4.26065 9.27676 4.26065C10.458 4.26065 11.478 4.48527 12.3367 4.93452C13.2079 5.37093 13.8784 5.99346 14.3481 6.80209C14.8178 7.61077 15.0598 8.55419 15.0741 9.63235H10.5674C10.4277 9.1831 10.1879 8.83657 9.84789 8.59269C9.50759 8.33597 9.0935 8.20761 8.60561 8.20761C7.88655 8.20761 7.27705 8.47713 6.77698 9.01624C6.27694 9.55534 5.96135 10.2806 5.83016 11.1919C5.78527 11.4486 5.76652 11.7246 5.77394 12.0198C5.79071 12.6872 5.96442 13.2135 6.29509 13.5986C6.6386 13.9837 7.11213 14.1762 7.71557 14.1762C8.20346 14.1762 8.6562 14.0543 9.0738 13.8104C9.49105 13.5537 9.83528 13.2007 10.1065 12.7514H14.6132C14.2551 13.8296 13.7203 14.773 13.0088 15.5817C12.2972 16.3903 11.4399 17.0193 10.4369 17.4685C9.44636 17.9049 8.36046 18.1232 7.17921 18.1232C5.98512 18.1232 4.95888 17.9049 4.10048 17.4685C3.24177 17.0193 2.58398 16.3903 2.12711 15.5817C1.66991 14.7602 1.42777 13.8104 1.40067 12.7322C1.38744 12.2059 1.41948 11.6925 1.49678 11.1919ZM21.2042 3.77931L19.0393 18.0269H14.7637L16.9286 3.77931H21.2042ZM20.6413 12.5974C20.8181 11.455 21.1655 10.4667 21.6839 9.63235C22.2018 8.78521 22.8341 8.14345 23.5807 7.70701C24.3269 7.25776 25.1238 7.03317 25.9712 7.03317C26.6774 7.03317 27.2653 7.18076 27.7349 7.47598C28.2043 7.75836 28.5351 8.14983 28.7274 8.65043L28.9598 7.16791H33.2162L31.5631 18.0269H27.3068L27.5391 16.5443C27.1922 17.0449 26.74 17.4428 26.1824 17.7381C25.6246 18.0204 24.9926 18.1617 24.2864 18.1617C23.195 18.1617 22.3063 17.7958 21.6203 17.0642C20.9342 16.3326 20.5749 15.3186 20.5423 14.0222C20.5301 13.5344 20.563 13.0595 20.6413 12.5974ZM28.1333 12.5974C28.1561 12.4819 28.165 12.3279 28.1602 12.1353C28.1492 11.6989 28.0253 11.3652 27.7884 11.1341C27.5511 10.8903 27.2335 10.7683 26.8354 10.7683C26.3732 10.7683 25.9664 10.9288 25.6149 11.2497C25.2763 11.5705 25.0629 12.0198 24.9747 12.5974C24.952 12.7129 24.943 12.867 24.9478 13.0595C24.9588 13.4959 25.0829 13.836 25.3201 14.0799C25.5571 14.311 25.8746 14.4265 26.2725 14.4265C26.7348 14.4265 27.1352 14.266 27.4738 13.9451C27.8253 13.6242 28.0451 13.175 28.1333 12.5974ZM36.8477 6.3015C36.18 6.3015 35.6495 6.14106 35.2563 5.82017C34.8759 5.49929 34.6792 5.08213 34.6663 4.56871C34.6551 4.11946 34.7665 3.7023 35.0008 3.31723C35.2351 2.93216 35.5678 2.63052 35.9988 2.41231C36.4424 2.18128 36.9338 2.06576 37.4731 2.06576C38.1279 2.06576 38.6457 2.23262 39.0265 2.56634C39.4197 2.88724 39.623 3.31081 39.6362 3.83707C39.6475 4.28632 39.5358 4.69706 39.3012 5.06928C39.0666 5.44151 38.7339 5.74317 38.3032 5.97419C37.8721 6.19241 37.3869 6.3015 36.8477 6.3015ZM38.8339 7.16791L37.1809 18.0269H32.9053L34.5583 7.16791H38.8339ZM54.6879 7.0909C55.869 7.0909 56.7817 7.39898 57.4266 8.01509C58.0838 8.6312 58.4263 9.48476 58.4537 10.5758C58.4627 10.9352 58.4339 11.3202 58.3672 11.731L57.4087 18.0269H53.152L54.0283 12.2701C54.0392 12.1931 54.043 12.084 54.0392 11.9428C54.0298 11.5705 53.9074 11.2882 53.6712 11.0956C53.4477 10.8903 53.1373 10.7876 52.7391 10.7876C52.277 10.7876 51.8887 10.9159 51.574 11.1726C51.2721 11.4165 51.0813 11.7567 51.0024 12.1931L50.109 18.0269H45.8528L46.7288 12.2701C46.7398 12.1931 46.7434 12.084 46.7399 11.9428C46.7306 11.5705 46.6079 11.2882 46.3719 11.0956C46.1485 10.8903 45.8378 10.7876 45.4397 10.7876C44.9775 10.7876 44.5891 10.9159 44.2746 11.1726C43.9729 11.4294 43.7826 11.7759 43.7037 12.2123L42.8098 18.0269H38.5342L40.1872 7.16791H44.4628L44.23 8.6312C44.6164 8.1691 45.095 7.79687 45.6656 7.51449C46.2363 7.23211 46.8812 7.0909 47.6003 7.0909C48.3836 7.0909 49.0488 7.26419 49.5969 7.61077C50.1576 7.94446 50.5677 8.42583 50.8276 9.05474C51.3137 8.47713 51.8858 8.00866 52.5449 7.64928C53.2157 7.27704 53.9301 7.0909 54.6879 7.0909Z" fill="var(--fill-0, white)"/>
<g id="Mask group">
<mask id="mask0_2_41" style="mask-type:luminance" maskUnits="userSpaceOnUse" x="-1" y="0" width="62" height="20">
<g id="Group">
<path id="Vector_2" d="M60.4154 0.552076H-0.543658V19.9161H60.4154V0.552076Z" fill="var(--fill-0, white)"/>
<path id="Vector_3" d="M1.49678 11.1919C1.69402 9.84414 2.14535 8.644 2.85076 7.5915C3.55617 6.53899 4.46014 5.72389 5.56266 5.14633C6.66491 4.55587 7.90294 4.26065 9.27676 4.26065C10.458 4.26065 11.478 4.48527 12.3367 4.93452C13.2079 5.37093 13.8784 5.99346 14.3481 6.80209C14.8178 7.61077 15.0598 8.55419 15.0741 9.63235H10.5674C10.4277 9.1831 10.1879 8.83657 9.84789 8.59269C9.50759 8.33597 9.0935 8.20761 8.60561 8.20761C7.88655 8.20761 7.27705 8.47713 6.77698 9.01624C6.27694 9.55534 5.96135 10.2806 5.83016 11.1919C5.78527 11.4486 5.76652 11.7246 5.77394 12.0198C5.79071 12.6872 5.96442 13.2135 6.29509 13.5986C6.6386 13.9837 7.11213 14.1762 7.71557 14.1762C8.20346 14.1762 8.6562 14.0543 9.0738 13.8104C9.49105 13.5537 9.83528 13.2007 10.1065 12.7514H14.6132C14.2551 13.8296 13.7203 14.773 13.0088 15.5817C12.2972 16.3903 11.4399 17.0193 10.4369 17.4685C9.44636 17.9049 8.36046 18.1232 7.17921 18.1232C5.98512 18.1232 4.95888 17.9049 4.10048 17.4685C3.24177 17.0193 2.58398 16.3903 2.12711 15.5817C1.66991 14.7602 1.42777 13.8104 1.40067 12.7322C1.38744 12.2059 1.41948 11.6925 1.49678 11.1919ZM21.2042 3.77931L19.0393 18.0269H14.7637L16.9286 3.77931H21.2042ZM20.6413 12.5974C20.8181 11.455 21.1655 10.4667 21.6839 9.63235C22.2018 8.78521 22.8341 8.14345 23.5807 7.70701C24.3269 7.25776 25.1238 7.03317 25.9712 7.03317C26.6774 7.03317 27.2653 7.18076 27.7349 7.47598C28.2043 7.75836 28.5351 8.14983 28.7274 8.65043L28.9598 7.16791H33.2162L31.5631 18.0269H27.3068L27.5391 16.5443C27.1922 17.0449 26.74 17.4428 26.1824 17.7381C25.6246 18.0204 24.9926 18.1617 24.2864 18.1617C23.195 18.1617 22.3063 17.7958 21.6203 17.0642C20.9342 16.3326 20.5749 15.3186 20.5423 14.0222C20.5301 13.5344 20.563 13.0595 20.6413 12.5974ZM28.1333 12.5974C28.1561 12.4819 28.165 12.3279 28.1602 12.1353C28.1492 11.6989 28.0253 11.3652 27.7884 11.1341C27.5511 10.8903 27.2335 10.7683 26.8354 10.7683C26.3732 10.7683 25.9664 10.9288 25.6149 11.2497C25.2763 11.5705 25.0629 12.0198 24.9747 12.5974C24.952 12.7129 24.943 12.867 24.9478 13.0595C24.9588 13.4959 25.0829 13.836 25.3201 14.0799C25.5571 14.311 25.8746 14.4265 26.2725 14.4265C26.7348 14.4265 27.1352 14.266 27.4738 13.9451C27.8253 13.6242 28.0451 13.175 28.1333 12.5974ZM36.8477 6.3015C36.18 6.3015 35.6495 6.14106 35.2563 5.82017C34.8759 5.49929 34.6792 5.08213 34.6663 4.56871C34.6551 4.11946 34.7665 3.7023 35.0008 3.31723C35.2351 2.93216 35.5678 2.63052 35.9988 2.41231C36.4424 2.18128 36.9338 2.06576 37.4731 2.06576C38.1279 2.06576 38.6457 2.23262 39.0265 2.56634C39.4197 2.88724 39.623 3.31081 39.6362 3.83707C39.6475 4.28632 39.5358 4.69706 39.3012 5.06928C39.0666 5.44151 38.7339 5.74317 38.3032 5.97419C37.8721 6.19241 37.3869 6.3015 36.8477 6.3015ZM38.8339 7.16791L37.1809 18.0269H32.9053L34.5583 7.16791H38.8339ZM54.6879 7.0909C55.869 7.0909 56.7817 7.39898 57.4266 8.01509C58.0838 8.6312 58.4263 9.48476 58.4537 10.5758C58.4627 10.9352 58.4339 11.3202 58.3672 11.731L57.4087 18.0269H53.152L54.0283 12.2701C54.0392 12.1931 54.043 12.084 54.0392 11.9428C54.0298 11.5705 53.9074 11.2882 53.6712 11.0956C53.4477 10.8903 53.1373 10.7876 52.7391 10.7876C52.277 10.7876 51.8887 10.9159 51.574 11.1726C51.2721 11.4165 51.0813 11.7567 51.0024 12.1931L50.109 18.0269H45.8528L46.7288 12.2701C46.7398 12.1931 46.7434 12.084 46.7399 11.9428C46.7306 11.5705 46.6079 11.2882 46.3719 11.0956C46.1485 10.8903 45.8378 10.7876 45.4397 10.7876C44.9775 10.7876 44.5891 10.9159 44.2746 11.1726C43.9729 11.4294 43.7826 11.7759 43.7037 12.2123L42.8098 18.0269H38.5342L40.1872 7.16791H44.4628L44.23 8.6312C44.6164 8.1691 45.095 7.79687 45.6656 7.51449C46.2363 7.23211 46.8812 7.0909 47.6003 7.0909C48.3836 7.0909 49.0488 7.26419 49.5969 7.61077C50.1576 7.94446 50.5677 8.42583 50.8276 9.05474C51.3137 8.47713 51.8858 8.00866 52.5449 7.64928C53.2157 7.27704 53.9301 7.0909 54.6879 7.0909Z" fill="var(--fill-0, black)"/>
</g>
</mask>
<g mask="url(#mask0_2_41)">
<path id="Vector_4" d="M1.49678 11.1919L2.79767 11.4243C2.79819 11.4209 2.79869 11.4175 2.79919 11.4142L1.49678 11.1919ZM5.56266 5.14633L6.19653 6.31458C6.19998 6.31279 6.20348 6.31095 6.20693 6.3091L5.56266 5.14633ZM12.3367 4.93452L11.7495 6.09655C11.7566 6.10024 11.7636 6.10387 11.7708 6.10747L12.3367 4.93452ZM15.0741 9.63235L15.1072 10.9477C15.8277 10.9477 16.3997 10.3683 16.3901 9.64803L15.0741 9.63235ZM10.5674 9.63235L9.31129 9.99372C9.4869 10.5584 10.013 10.9477 10.6004 10.9477L10.5674 9.63235ZM9.84789 8.59269L9.07186 9.63523C9.0806 9.6418 9.08939 9.64831 9.09827 9.65465L9.84789 8.59269ZM5.83016 11.1919L7.12687 11.4499C7.12909 11.437 7.13116 11.424 7.13301 11.4111L5.83016 11.1919ZM6.29509 13.5986L5.30551 14.4406C5.31109 14.4471 5.31676 14.4536 5.32247 14.46L6.29509 13.5986ZM9.07379 13.8104L9.75898 14.9502C9.76739 14.9453 9.77575 14.9403 9.78402 14.9352L9.07379 13.8104ZM10.1065 12.7514L10.0734 11.4361C9.62098 11.4361 9.20608 11.6685 8.97491 12.0514L10.1065 12.7514ZM14.6132 12.7514L15.8634 13.1938C15.9972 12.791 15.9249 12.3434 15.6697 11.9937C15.4144 11.6441 15.008 11.4361 14.5801 11.4361L14.6132 12.7514ZM10.4369 17.4685L10.9929 18.6743C10.9953 18.6732 10.9977 18.6722 11 18.6711L10.4369 17.4685ZM4.10048 17.4685L3.51325 18.6306C3.51793 18.633 3.52261 18.6354 3.52731 18.6378L4.10048 17.4685ZM2.12711 15.5817L0.980664 16.1988C0.982076 16.2013 0.983498 16.2039 0.984925 16.2064L2.12711 15.5817ZM1.49678 11.1919L2.79919 11.4142C2.97053 10.2434 3.35759 9.22614 3.95 8.34225L2.85076 7.5915L1.75153 6.84074C0.933103 8.06191 0.417512 9.44493 0.194369 10.9696L1.49678 11.1919ZM2.85076 7.5915L3.95 8.34225C4.53996 7.462 5.28557 6.79184 6.19653 6.31458L5.56266 5.14633L4.92883 3.97801C3.63473 4.65598 2.57238 5.61598 1.75153 6.84074L2.85076 7.5915ZM5.56266 5.14633L6.20693 6.3091C7.10613 5.8274 8.13123 5.57597 9.30983 5.57597L9.27676 4.26065L9.24373 2.94532C7.67466 2.94532 6.22365 3.28433 4.91844 3.98352L5.56266 5.14633ZM9.27676 4.26065L9.30983 5.57597C10.3252 5.57597 11.1228 5.76868 11.7495 6.09655L12.3367 4.93452L12.924 3.77248C11.8332 3.20187 10.5909 2.94532 9.24373 2.94532L9.27676 4.26065ZM12.3367 4.93452L11.7708 6.10747C12.4156 6.43047 12.8834 6.87173 13.214 7.44088L14.3481 6.80209L15.4822 6.16331C14.8734 5.1152 14.0003 4.3114 12.9026 3.76158L12.3367 4.93452ZM14.3481 6.80209L13.214 7.44088C13.5496 8.01854 13.7463 8.72909 13.758 9.61671L15.0741 9.63235L16.3901 9.64803C16.3733 8.37924 16.0861 7.20296 15.4822 6.16331L14.3481 6.80209ZM15.0741 9.63235L15.041 8.31702H10.5343L10.5674 9.63235L10.6004 10.9477H15.1072L15.0741 9.63235ZM10.5674 9.63235L11.8234 9.27102C11.6082 8.57895 11.2092 7.96954 10.5975 7.53069L9.84789 8.59269L9.09827 9.65465C9.16644 9.70359 9.24713 9.78726 9.31129 9.99372L10.5674 9.63235ZM9.84789 8.59269L10.6239 7.55011C10.0131 7.08939 9.30269 6.89228 8.57254 6.89228L8.60561 8.20761L8.63863 9.52293C8.8843 9.52293 9.00203 9.58255 9.07186 9.63523L9.84789 8.59269ZM8.60561 8.20761L8.57254 6.89228C7.47921 6.89228 6.53353 7.31984 5.80143 8.10915L6.77698 9.01624L7.75257 9.92337C8.02053 9.63447 8.29394 9.52293 8.63863 9.52293L8.60561 8.20761ZM6.77698 9.01624L5.80143 8.10915C5.08691 8.87946 4.68667 9.86559 4.52733 10.9727L5.83016 11.1919L7.13301 11.4111C7.236 10.6955 7.46702 10.2313 7.75257 9.92337L6.77698 9.01624ZM5.83016 11.1919L4.5335 10.9339C4.47199 11.2856 4.44888 11.6487 4.4582 12.0198H5.77394H7.08968C7.08416 11.8004 7.09852 11.6117 7.12687 11.4499L5.83016 11.1919ZM5.77394 12.0198H4.4582C4.48013 12.8922 4.71306 13.7508 5.30551 14.4406L6.29509 13.5986L7.28471 12.7565C7.21583 12.6763 7.10131 12.4823 7.08968 12.0198H5.77394ZM6.29509 13.5986L5.32247 14.46C5.97099 15.187 6.8408 15.4915 7.74865 15.4915L7.71557 14.1762L7.6825 12.8609C7.3834 12.8609 7.30625 12.7803 7.26775 12.7371L6.29509 13.5986ZM7.71557 14.1762L7.74865 15.4915C8.46746 15.4915 9.14499 15.3088 9.75898 14.9502L9.07379 13.8104L8.38866 12.6705C8.16746 12.7997 7.93951 12.8609 7.6825 12.8609L7.71557 14.1762ZM9.07379 13.8104L9.78402 14.9352C10.3859 14.565 10.8699 14.0613 11.238 13.4514L10.1065 12.7514L8.97491 12.0514C8.80072 12.34 8.59625 12.5423 8.36357 12.6855L9.07379 13.8104ZM10.1065 12.7514L10.1395 14.0668H14.6462L14.6132 12.7514L14.5801 11.4361H10.0734L10.1065 12.7514ZM14.6132 12.7514L13.363 12.3091C13.0561 13.2329 12.6043 14.0249 12.0109 14.6992L13.0088 15.5817L14.0066 16.4642C14.8363 15.5212 15.4541 14.4263 15.8634 13.1938L14.6132 12.7514ZM13.0088 15.5817L12.0109 14.6992C11.4215 15.369 10.7132 15.8899 9.87368 16.2659L10.4369 17.4685L11 18.6711C12.1667 18.1486 13.1729 17.4117 14.0066 16.4642L13.0088 15.5817ZM10.4369 17.4685L9.88082 16.2628C9.06728 16.6212 8.16132 16.8078 7.14614 16.8078L7.17921 18.1232L7.21224 19.4385C8.55954 19.4385 9.8254 19.1887 10.9929 18.6743L10.4369 17.4685ZM7.17921 18.1232L7.14614 16.8078C6.10984 16.8078 5.30159 16.6185 4.67365 16.2992L4.10048 17.4685L3.52731 18.6378C4.61616 19.1914 5.86035 19.4385 7.21224 19.4385L7.17921 18.1232ZM4.10048 17.4685L4.6877 16.3065C4.05096 15.9734 3.59116 15.5267 3.26929 14.957L2.12711 15.5817L0.984925 16.2064C1.57679 17.254 2.43258 18.0652 3.51325 18.6306L4.10048 17.4685ZM2.12711 15.5817L3.27355 14.9646C2.93782 14.3613 2.73897 13.6296 2.71641 12.7322H1.40067H0.0849294C0.116569 13.9911 0.402007 15.1591 0.980664 16.1988L2.12711 15.5817ZM1.40067 12.7322H2.71641C2.70508 12.2811 2.73261 11.8455 2.79767 11.4243L1.49678 11.1919L0.195892 10.9595C0.106349 11.5394 0.0698132 12.1307 0.0849294 12.7322H1.40067ZM21.2042 3.77931L22.5056 4.0086C22.5638 3.6256 22.4487 3.23222 22.1912 2.93418C21.9337 2.63614 21.5603 2.46399 21.1712 2.46399L21.2042 3.77931ZM19.0393 18.0269L19.0723 19.3422C19.7105 19.3422 20.2452 18.8844 20.3407 18.2561L19.0393 18.0269ZM14.7637 18.0269L13.4623 17.7976C13.4041 18.1806 13.5192 18.574 13.7767 18.872C14.0342 19.17 14.4077 19.3422 14.7968 19.3422L14.7637 18.0269ZM16.9286 3.77931L16.8956 2.46399C16.2574 2.46399 15.7227 2.92181 15.6273 3.55003L16.9286 3.77931ZM21.2042 3.77931L19.9029 3.55003L17.7379 17.7976L19.0393 18.0269L20.3407 18.2561L22.5056 4.0086L21.2042 3.77931ZM19.0393 18.0269L19.0063 16.7115H14.7306L14.7637 18.0269L14.7968 19.3422H19.0723L19.0393 18.0269ZM14.7637 18.0269L16.065 18.2561L18.23 4.0086L16.9286 3.77931L15.6273 3.55003L13.4623 17.7976L14.7637 18.0269ZM16.9286 3.77931L16.9617 5.09465H21.2373L21.2042 3.77931L21.1712 2.46399H16.8956L16.9286 3.77931ZM20.6413 12.5974L21.9392 12.8484C21.9402 12.8423 21.9412 12.8363 21.9421 12.8301L20.6413 12.5974ZM21.6839 9.63235L22.8069 10.3462C22.8085 10.3437 22.8101 10.3411 22.8117 10.3386L21.6839 9.63235ZM23.5807 7.70701L24.2663 8.84668C24.271 8.84389 24.2757 8.8411 24.2804 8.83827L23.5807 7.70701ZM27.7349 7.47598L27.0544 8.58438C27.0619 8.5891 27.0694 8.59373 27.0771 8.59832L27.7349 7.47598ZM28.7274 8.65043L27.5002 9.09485C27.7154 9.65493 28.2766 10.0103 28.8687 9.96131C29.4607 9.91232 29.9361 9.47124 30.0279 8.88575L28.7274 8.65043ZM28.9598 7.16791L28.9268 5.85258C28.2909 5.85258 27.7574 6.30721 27.6594 6.93263L28.9598 7.16791ZM33.2162 7.16791L34.5175 7.39756C34.5758 7.0145 34.4607 6.62106 34.2033 6.32294C33.9458 6.02479 33.5723 5.85258 33.1831 5.85258L33.2162 7.16791ZM31.5631 18.0269L31.5962 19.3422C32.2342 19.3422 32.7688 18.8845 32.8644 18.2565L31.5631 18.0269ZM27.3068 18.0269L26.0063 17.7916C25.9462 18.1753 26.0603 18.5702 26.3178 18.8697C26.5753 19.1691 26.9497 19.3422 27.3398 19.3422L27.3068 18.0269ZM27.5391 16.5443L28.8396 16.7797C28.9344 16.1744 28.5951 15.5738 28.0226 15.3335C27.4501 15.0932 26.7974 15.2775 26.4511 15.7772L27.5391 16.5443ZM26.1824 17.7381L26.8004 18.9145C26.8074 18.911 26.8144 18.9074 26.8213 18.9038L26.1824 17.7381ZM28.1333 12.5974L26.8417 12.3121C26.8381 12.3304 26.8349 12.3487 26.832 12.3672L28.1333 12.5974ZM27.7884 11.1341L26.8559 12.0387C26.8643 12.0473 26.8728 12.0558 26.8814 12.0642L27.7884 11.1341ZM25.6149 11.2497L24.714 10.2685C24.7082 10.2738 24.7024 10.2791 24.6968 10.2845L25.6149 11.2497ZM24.9747 12.5974L26.2663 12.8827C26.2699 12.8645 26.2731 12.8461 26.2759 12.8276L24.9747 12.5974ZM25.3201 14.0799L24.3877 14.9845C24.396 14.9931 24.4046 15.0016 24.4131 15.01L25.3201 14.0799ZM27.4738 13.9451L26.5729 12.964C26.5671 12.9693 26.5613 12.9746 26.5556 12.98L27.4738 13.9451ZM20.6413 12.5974L21.9421 12.8301C22.0968 11.8306 22.3934 11.0118 22.8069 10.3462L21.6839 9.63235L20.5608 8.91854C19.9377 9.92157 19.5393 11.0794 19.3405 12.3647L20.6413 12.5974ZM21.6839 9.63235L22.8117 10.3386C23.2366 9.6435 23.7261 9.16241 24.2663 8.84668L23.5807 7.70701L22.8951 6.56739C21.9421 7.12444 21.1671 7.92693 20.5561 8.92619L21.6839 9.63235ZM23.5807 7.70701L24.2804 8.83827C24.8348 8.50454 25.4026 8.34849 26.0042 8.34849L25.9712 7.03317L25.9381 5.71784C24.845 5.71784 23.8191 6.01099 22.881 6.57575L23.5807 7.70701ZM25.9712 7.03317L26.0042 8.34849C26.5307 8.34849 26.8535 8.45809 27.0544 8.58438L27.7349 7.47598L28.4155 6.36754C27.6771 5.90342 26.8241 5.71784 25.9381 5.71784L25.9712 7.03317ZM27.7349 7.47598L27.0771 8.59832C27.2915 8.72739 27.4185 8.88211 27.5002 9.09485L28.7274 8.65043L29.9546 8.20605C29.6517 7.41759 29.117 6.78934 28.3929 6.35365L27.7349 7.47598ZM28.7274 8.65043L30.0279 8.88575L30.2602 7.40323L28.9598 7.16791L27.6594 6.93263L27.427 8.41515L28.7274 8.65043ZM28.9598 7.16791L28.9928 8.48323H33.2492L33.2162 7.16791L33.1831 5.85258H28.9268L28.9598 7.16791ZM33.2162 7.16791L31.9149 6.9383L30.2618 17.7973L31.5631 18.0269L32.8644 18.2565L34.5175 7.39756L33.2162 7.16791ZM31.5631 18.0269L31.53 16.7115H27.2737L27.3068 18.0269L27.3398 19.3422H31.5962L31.5631 18.0269ZM27.3068 18.0269L28.6072 18.2622L28.8396 16.7797L27.5391 16.5443L26.2387 16.3091L26.0063 17.7916L27.3068 18.0269ZM27.5391 16.5443L26.4511 15.7772C26.2238 16.1052 25.9277 16.369 25.5436 16.5724L26.1824 17.7381L26.8213 18.9038C27.5522 18.5167 28.1606 17.9847 28.6272 17.3114L27.5391 16.5443ZM26.1824 17.7381L25.5644 16.5616C25.2074 16.7423 24.7796 16.8463 24.2533 16.8463L24.2864 18.1617L24.3195 19.477C25.2055 19.477 26.0418 19.2985 26.8004 18.9145L26.1824 17.7381ZM24.2864 18.1617L24.2533 16.8463C23.49 16.8463 22.9723 16.6067 22.57 16.1777L21.6203 17.0642L20.6705 17.9507C21.6404 18.985 22.9001 19.477 24.3195 19.477L24.2864 18.1617ZM21.6203 17.0642L22.57 16.1777C22.1742 15.7556 21.885 15.0945 21.858 14.0222H20.5423H19.2266C19.2648 15.5426 19.6943 16.9095 20.6705 17.9507L21.6203 17.0642ZM20.5423 14.0222H21.858C21.8478 13.6156 21.8754 13.2249 21.9392 12.8484L20.6413 12.5974L19.3435 12.3463C19.2507 12.8941 19.2123 13.4532 19.2266 14.0222H20.5423ZM28.1333 12.5974L29.4249 12.8827C29.4739 12.6338 29.4819 12.3721 29.4759 12.1353H28.1602H26.8445C26.8462 12.2036 26.8451 12.2528 26.8431 12.286C26.8411 12.3206 26.8388 12.3268 26.8417 12.3121L28.1333 12.5974ZM28.1602 12.1353H29.4759C29.4592 11.4709 29.2611 10.7558 28.6954 10.204L27.7884 11.1341L26.8814 12.0642C26.8647 12.048 26.851 12.0307 26.8407 12.0146C26.8306 11.9989 26.8268 11.9887 26.8265 11.988C26.8263 11.9877 26.8303 11.998 26.8345 12.0224C26.8388 12.0469 26.8431 12.0838 26.8445 12.1353H28.1602ZM27.7884 11.1341L28.7208 10.2295C28.1816 9.67529 27.4895 9.45301 26.8024 9.45301L26.8354 10.7683L26.8685 12.0837C26.9335 12.0837 26.9465 12.0935 26.9273 12.0861C26.9179 12.0825 26.9047 12.0762 26.89 12.0665C26.8753 12.0568 26.8637 12.0468 26.8559 12.0387L27.7884 11.1341ZM26.8354 10.7683L26.8024 9.45301C26.0021 9.45301 25.2901 9.74247 24.714 10.2685L25.6149 11.2497L26.5159 12.2308C26.6426 12.1151 26.7443 12.0837 26.8685 12.0837L26.8354 10.7683ZM25.6149 11.2497L24.6968 10.2845C24.1072 10.8432 23.7942 11.577 23.6735 12.3672L24.9747 12.5974L26.2759 12.8276C26.3317 12.4626 26.4454 12.2979 26.5331 12.2148L25.6149 11.2497ZM24.9747 12.5974L23.6831 12.3121C23.634 12.561 23.6261 12.8227 23.6321 13.0595H24.9478H26.2636C26.2619 12.9913 26.2629 12.9419 26.2648 12.9088C26.2669 12.8742 26.2692 12.868 26.2663 12.8827L24.9747 12.5974ZM24.9478 13.0595H23.6321C23.6489 13.7284 23.8483 14.43 24.3877 14.9845L25.3201 14.0799L26.2526 13.1753C26.263 13.1861 26.2717 13.1975 26.2781 13.2077C26.2842 13.2177 26.2856 13.2224 26.2843 13.2189C26.2814 13.2107 26.2662 13.1637 26.2636 13.0595H24.9478ZM25.3201 14.0799L24.4131 15.01C24.9562 15.5396 25.6396 15.7418 26.3056 15.7418L26.2725 14.4265L26.2395 13.1112C26.1669 13.1112 26.146 13.1006 26.1586 13.1052C26.1649 13.1075 26.1764 13.1125 26.1906 13.1213C26.2048 13.1302 26.2173 13.1403 26.2271 13.1499L25.3201 14.0799ZM26.2725 14.4265L26.3056 15.7418C27.1073 15.7418 27.8217 15.4508 28.392 14.9103L27.4738 13.9451L26.5556 12.98C26.4488 13.0813 26.3623 13.1112 26.2395 13.1112L26.2725 14.4265ZM27.4738 13.9451L28.3748 14.9263C28.9849 14.3692 29.3119 13.6304 29.4345 12.8276L28.1333 12.5974L26.832 12.3672C26.7782 12.7196 26.6657 12.8792 26.5729 12.964L27.4738 13.9451ZM35.2563 5.82017L34.4222 6.81641C34.4279 6.82123 34.4336 6.82595 34.4394 6.83063L35.2563 5.82017ZM35.9988 2.41231L36.6168 3.58878C36.6212 3.58655 36.6256 3.5843 36.63 3.58202L35.9988 2.41231ZM39.0265 2.56634L38.1728 3.5457C38.1848 3.55628 38.1971 3.56665 38.2095 3.57681L39.0265 2.56634ZM38.3032 5.97419L38.9212 7.15066C38.9302 7.14613 38.9392 7.14145 38.948 7.13668L38.3032 5.97419ZM38.8339 7.16791L40.1352 7.39756C40.1936 7.0145 40.0785 6.62106 39.821 6.32294C39.5635 6.02479 39.19 5.85258 38.8009 5.85258L38.8339 7.16791ZM37.1809 18.0269L37.2139 19.3422C37.852 19.3422 38.3866 18.8845 38.4822 18.2565L37.1809 18.0269ZM32.9053 18.0269L31.6039 17.7973C31.5456 18.1803 31.6607 18.5738 31.9182 18.8719C32.1757 19.17 32.5492 19.3422 32.9383 19.3422L32.9053 18.0269ZM34.5583 7.16791L34.5253 5.85258C33.8872 5.85258 33.3526 6.31024 33.257 6.9383L34.5583 7.16791ZM36.8477 6.3015L36.8146 4.98619C36.352 4.98619 36.1552 4.87659 36.0732 4.80972L35.2563 5.82017L34.4394 6.83063C35.1439 7.40554 36.008 7.61687 36.8807 7.61687L36.8477 6.3015ZM35.2563 5.82017L36.0904 4.82394C36.021 4.76539 35.9859 4.71899 35.9821 4.56871H34.6663H33.3506C33.3726 5.44529 33.7308 6.23318 34.4222 6.81641L35.2563 5.82017ZM34.6663 4.56871H35.9821C35.9771 4.37247 36.0219 4.1988 36.1301 4.021L35.0008 3.31723L33.8716 2.61346C33.5112 3.2058 33.3329 3.86645 33.3506 4.56871H34.6663ZM35.0008 3.31723L36.1301 4.021C36.2326 3.85245 36.3817 3.70778 36.6168 3.58878L35.9988 2.41231L35.3808 1.23585C34.7538 1.55327 34.2376 2.01186 33.8716 2.61346L35.0008 3.31723ZM35.9988 2.41231L36.63 3.58202C36.8776 3.45306 37.1618 3.38108 37.5061 3.38108L37.4731 2.06576L37.44 0.750429C36.7059 0.750429 36.0073 0.909489 35.3677 1.24261L35.9988 2.41231ZM37.4731 2.06576L37.5061 3.38108C37.9394 3.38108 38.1071 3.48819 38.1728 3.5457L39.0265 2.56634L39.8802 1.58699C39.1843 0.977049 38.3164 0.750429 37.44 0.750429L37.4731 2.06576ZM39.0265 2.56634L38.2095 3.57681C38.2794 3.63383 38.3164 3.67883 38.3204 3.83707H39.6362H40.9519C40.9295 2.9428 40.56 2.14064 39.8434 1.55588L39.0265 2.56634ZM39.6362 3.83707H38.3204C38.3254 4.03282 38.2808 4.1926 38.1825 4.34846L39.3012 5.06928L40.4199 5.79013C40.7908 5.20151 40.9696 4.53982 40.9519 3.83707H39.6362ZM39.3012 5.06928L38.1825 4.34846C38.0775 4.51517 37.917 4.67299 37.6584 4.81174L38.3032 5.97419L38.948 7.13668C39.5508 6.81334 40.0558 6.36787 40.4199 5.79013L39.3012 5.06928ZM38.3032 5.97419L37.6852 4.79774C37.4528 4.91539 37.1714 4.98619 36.8146 4.98619L36.8477 6.3015L36.8807 7.61687C37.6026 7.61687 38.2914 7.46942 38.9212 7.15066L38.3032 5.97419ZM38.8339 7.16791L37.5326 6.9383L35.8796 17.7973L37.1809 18.0269L38.4822 18.2565L40.1352 7.39756L38.8339 7.16791ZM37.1809 18.0269L37.1478 16.7115H32.8722L32.9053 18.0269L32.9383 19.3422H37.2139L37.1809 18.0269ZM32.9053 18.0269L34.2066 18.2565L35.8596 7.39756L34.5583 7.16791L33.257 6.9383L31.6039 17.7973L32.9053 18.0269ZM34.5583 7.16791L34.5914 8.48323H38.867L38.8339 7.16791L38.8009 5.85258H34.5253L34.5583 7.16791ZM57.4266 8.01509L56.5295 8.95468C56.5328 8.9578 56.5361 8.96087 56.5394 8.96394L57.4266 8.01509ZM58.3672 11.731L57.068 11.4886C57.0676 11.4928 57.0666 11.497 57.0661 11.5013L58.3672 11.731ZM57.4087 18.0269L57.4417 19.3422C58.0795 19.3422 58.6143 18.8846 58.7098 18.2566L57.4087 18.0269ZM53.152 18.0269L51.8509 17.7973C51.7928 18.1803 51.9076 18.5738 52.165 18.8719C52.4225 19.17 52.7962 19.3422 53.185 19.3422L53.152 18.0269ZM54.0283 12.2701L55.3295 12.4997C55.3304 12.4952 55.3309 12.4908 55.3313 12.4863L54.0283 12.2701ZM53.6712 11.0956L52.7934 12.0535C52.8132 12.0716 52.8335 12.0891 52.8543 12.1061L53.6712 11.0956ZM51.574 11.1726L52.4164 12.2039C52.4183 12.2025 52.4202 12.2011 52.4216 12.1997L51.574 11.1726ZM51.0024 12.1931L49.7074 11.9278C49.705 11.9393 49.7031 11.9508 49.7013 11.9623L51.0024 12.1931ZM50.109 18.0269L50.1421 19.3422C50.7798 19.3422 51.3142 18.8852 51.4101 18.2577L50.109 18.0269ZM45.8528 18.0269L44.5515 17.7973C44.4932 18.1803 44.6083 18.5738 44.8657 18.8719C45.1232 19.17 45.4967 19.3422 45.8858 19.3422L45.8528 18.0269ZM46.7289 12.2701L48.0302 12.4997C48.0307 12.4952 48.0317 12.4908 48.0321 12.4863L46.7289 12.2701ZM46.3719 11.0956L45.4943 12.0535C45.514 12.0716 45.5342 12.0891 45.555 12.1061L46.3719 11.0956ZM44.2746 11.1726L43.4268 10.1456C43.4201 10.151 43.4135 10.1566 43.4069 10.1622L44.2746 11.1726ZM43.7037 12.2123L42.4083 11.9471C42.4063 11.9583 42.4044 11.9696 42.4027 11.9808L43.7037 12.2123ZM42.8098 18.0269L42.8428 19.3422C43.4802 19.3422 44.0144 18.8856 44.1108 18.2584L42.8098 18.0269ZM38.5342 18.0269L37.2329 17.7973C37.1745 18.1803 37.2896 18.5738 37.5471 18.8719C37.8046 19.17 38.1781 19.3422 38.5672 19.3422L38.5342 18.0269ZM40.1872 7.16791L40.1542 5.85258C39.5161 5.85258 38.9815 6.31024 38.8859 6.9383L40.1872 7.16791ZM44.4628 7.16791L45.7628 7.4062C45.8239 7.02211 45.7104 6.62644 45.4528 6.3263C45.1953 6.02616 44.8205 5.85258 44.4298 5.85258L44.4628 7.16791ZM44.23 8.6312L42.93 8.3929C42.837 8.97712 43.1492 9.56101 43.6916 9.81754C44.234 10.0741 44.8721 9.93962 45.2486 9.48948L44.23 8.6312ZM49.5969 7.61077L48.9132 8.71718C48.9236 8.7237 48.934 8.73008 48.9444 8.73631L49.5969 7.61077ZM50.8276 9.05474L49.6124 9.5303C49.7901 9.96036 50.178 10.2717 50.6348 10.3506C51.0912 10.4296 51.5499 10.2648 51.8433 9.91619L50.8276 9.05474ZM52.5449 7.64928L53.1978 8.80737C53.2002 8.80595 53.2025 8.80458 53.2054 8.80317L52.5449 7.64928ZM54.6879 7.0909L54.7209 8.40622C55.6786 8.40622 56.2129 8.65241 56.5295 8.95468L57.4266 8.01509L58.3238 7.07545C57.3506 6.14554 56.0594 5.77557 54.6548 5.77557L54.6879 7.0909ZM57.4266 8.01509L56.5394 8.96394C56.8739 9.27773 57.1176 9.75617 57.138 10.5758H58.4537H59.7695C59.7354 9.21334 59.2937 7.98461 58.3139 7.06624L57.4266 8.01509ZM58.4537 10.5758H57.138C57.145 10.842 57.1238 11.1452 57.068 11.4886L58.3672 11.731L59.6665 11.9734C59.7444 11.4953 59.7808 11.0284 59.7695 10.5758H58.4537ZM58.3672 11.731L57.0661 11.5013L56.1071 17.7972L57.4087 18.0269L58.7098 18.2566L59.6688 11.9607L58.3672 11.731ZM57.4087 18.0269L57.3756 16.7115H53.1189L53.152 18.0269L53.185 19.3422H57.4417L57.4087 18.0269ZM53.152 18.0269L54.4535 18.2564L55.3295 12.4997L54.0283 12.2701L52.7268 12.0405L51.8509 17.7973L53.152 18.0269ZM54.0283 12.2701L55.3313 12.4863C55.3573 12.3024 55.3592 12.1085 55.355 11.9428H54.0392H52.7235C52.7249 11.9946 52.7244 12.0306 52.7239 12.0533C52.723 12.0781 52.722 12.0754 52.7249 12.0538L54.0283 12.2701ZM54.0392 11.9428H55.355C55.3384 11.2815 55.1017 10.5859 54.488 10.0852L53.6712 11.0956L52.8543 12.1061C52.8307 12.0868 52.8061 12.062 52.7835 12.0322C52.7613 12.0025 52.7457 11.9739 52.7348 11.9499C52.7145 11.9023 52.722 11.8909 52.7235 11.9428H54.0392ZM53.6712 11.0956L54.549 10.1378C54.0028 9.63575 53.3268 9.47224 52.706 9.47224L52.7391 10.7876L52.7721 12.1029C52.8605 12.1029 52.8926 12.1146 52.886 12.1124C52.8822 12.1111 52.8694 12.1064 52.851 12.096C52.8326 12.0854 52.8128 12.0711 52.7934 12.0535L53.6712 11.0956ZM52.7391 10.7876L52.706 9.47224C51.9846 9.47224 51.2976 9.67912 50.726 10.1456L51.574 11.1726L52.4216 12.1997C52.4792 12.1528 52.5694 12.1029 52.7721 12.1029L52.7391 10.7876ZM51.574 11.1726L50.7312 10.1414C50.16 10.6028 49.8331 11.2317 49.7074 11.9278L51.0024 12.1931L52.2978 12.4583C52.3299 12.2817 52.3838 12.2302 52.4164 12.2039L51.574 11.1726ZM51.0024 12.1931L49.7013 11.9623L48.8079 17.7961L50.109 18.0269L51.4101 18.2577L52.3035 12.4239L51.0024 12.1931ZM50.109 18.0269L50.0759 16.7115H45.8197L45.8528 18.0269L45.8858 19.3422H50.1421L50.109 18.0269ZM45.8528 18.0269L47.1541 18.2564L48.0302 12.4997L46.7289 12.2701L45.4276 12.0405L44.5515 17.7973L45.8528 18.0269ZM46.7289 12.2701L48.0321 12.4863C48.0581 12.3024 48.06 12.1085 48.0558 11.9428H46.7399H45.4242C45.4255 11.9946 45.4252 12.0306 45.4244 12.0533C45.4235 12.0781 45.4226 12.0754 45.4256 12.0538L46.7289 12.2701ZM46.7399 11.9428H48.0558C48.0392 11.2815 47.8025 10.5859 47.1889 10.0852L46.3719 11.0956L45.555 12.1061C45.5314 12.0868 45.5068 12.062 45.4843 12.0322C45.4619 12.0025 45.4461 11.9739 45.4356 11.9499C45.415 11.9023 45.4229 11.8909 45.4242 11.9428H46.7399ZM46.3719 11.0956L47.2498 10.1378C46.7034 9.63575 46.0272 9.47224 45.4067 9.47224L45.4398 10.7876L45.4728 12.1029C45.5611 12.1029 45.5931 12.1146 45.5866 12.1124C45.5826 12.1111 45.57 12.1064 45.5519 12.096C45.5334 12.0854 45.5135 12.0711 45.4943 12.0535L46.3719 11.0956ZM45.4398 10.7876L45.4067 9.47224C44.685 9.47224 43.9984 9.67912 43.4268 10.1456L44.2746 11.1726L45.1223 12.1997C45.1799 12.1528 45.27 12.1029 45.4728 12.1029L45.4398 10.7876ZM44.2746 11.1726L43.4069 10.1622C42.856 10.6309 42.5338 11.2533 42.4083 11.9471L43.7037 12.2123L44.9991 12.4776C45.0314 12.2985 45.0898 12.2278 45.1423 12.1831L44.2746 11.1726ZM43.7037 12.2123L42.4027 11.9808L41.5088 17.7954L42.8098 18.0269L44.1108 18.2584L45.0047 12.4438L43.7037 12.2123ZM42.8098 18.0269L42.7767 16.7115H38.5011L38.5342 18.0269L38.5672 19.3422H42.8428L42.8098 18.0269ZM38.5342 18.0269L39.8355 18.2565L41.4885 7.39756L40.1872 7.16791L38.8859 6.9383L37.2329 17.7973L38.5342 18.0269ZM40.1872 7.16791L40.2203 8.48323H44.4959L44.4628 7.16791L44.4298 5.85258H40.1542L40.1872 7.16791ZM44.4628 7.16791L43.1629 6.92965L42.93 8.3929L44.23 8.6312L45.5299 8.8695L45.7628 7.4062L44.4628 7.16791ZM44.23 8.6312L45.2486 9.48948C45.516 9.16973 45.852 8.9046 46.2732 8.69616L45.6656 7.51449L45.0581 6.33282C44.3379 6.68918 43.7169 7.16847 43.2114 7.77291L44.23 8.6312ZM45.6656 7.51449L46.2732 8.69616C46.6462 8.51162 47.0907 8.40622 47.6334 8.40622L47.6003 7.0909L47.5672 5.77557C46.6717 5.77557 45.8265 5.9526 45.0581 6.33282L45.6656 7.51449ZM47.6003 7.0909L47.6334 8.40622C48.2206 8.40622 48.6246 8.53454 48.9132 8.71718L49.5969 7.61077L50.2805 6.50431C49.4735 5.99384 48.5466 5.77557 47.5672 5.77557L47.6003 7.0909ZM49.5969 7.61077L48.9444 8.73631C49.2402 8.91239 49.4594 9.15901 49.6124 9.5303L50.8276 9.05474L52.0422 8.57923C51.6761 7.6926 51.0746 6.97657 50.2493 6.48518L49.5969 7.61077ZM50.8276 9.05474L51.8433 9.91619C52.2288 9.45811 52.6786 9.0905 53.1978 8.80737L52.5449 7.64928L51.892 6.49113C51.0935 6.92682 50.3981 7.49621 49.8113 8.19329L50.8276 9.05474ZM52.5449 7.64928L53.2054 8.80317C53.6901 8.5342 54.1894 8.40622 54.7209 8.40622L54.6879 7.0909L54.6548 5.77557C53.6707 5.77557 52.7414 6.01987 51.8839 6.49539L52.5449 7.64928Z" fill="var(--fill-0, #0051FF)"/>
</g>
</g>
</g>
<defs>
<clipPath id="clip0_2_41">
<rect width="60" height="20" fill="white"/>
</clipPath>
</defs>
</svg>
