<svg preserveAspectRatio="none" width="100%" height="100%" overflow="visible" style="display: block;" viewBox="0 0 28 28" fill="none" xmlns="http://www.w3.org/2000/svg">
<g id="SVG" clip-path="url(#clip0_2_18)">
<path id="Vector" d="M12.1143 6.15949C11.7001 7.10892 11.3089 8.01415 11.1103 8.99632C11.0733 9.18129 10.9185 9.16124 10.9185 9.16124C9.25701 9.16124 7.12079 9.16124 5.22191 9.16124C4.50983 9.16124 3.32303 9.16124 2.61096 9.16124C1.95512 9.13325 1.42353 8.78003 0.932849 8.31659C0.442168 7.85316 0.11757 7.2234 0.0142181 6.53435C-0.0150388 6.30191 -0.0304372 6.1333 0.297549 6.1333C4.17281 6.14421 8.04911 6.14421 11.9264 6.1333C11.9772 6.14149 12.0281 6.15131 12.1143 6.15949Z" fill="var(--fill-0, #008CFF)"/>
<path id="Vector_2" d="M10.9223 13.1971C10.9223 13.1971 12.2381 13.2351 12.1044 13.0324C11.9707 12.8296 11.533 10.1339 11.9058 10.1718C11.9058 10.1718 8.36028 10.1827 4.34599 10.1718C4.00623 10.1718 4.02219 10.3402 4.05249 10.5725C4.15955 11.261 4.49579 11.8902 5.00408 12.3532C5.51236 12.8163 6.06301 13.1692 6.74239 13.1971H9.44701H10.9223Z" fill="var(--fill-0, #008CFF)"/>
<path id="Vector_3" d="M14.134 17.238C12.7691 17.1071 11.4462 17.284 10.2001 16.8706C9.03772 16.4861 8.33263 15.6525 8.09177 14.4565C8.03941 14.2014 8.12668 14.2082 8.32041 14.2099C9.81263 14.2269 11.3049 14.2354 12.7971 14.2524C12.9402 14.2524 13.1269 14.1877 13.1793 14.4225C13.4028 15.3891 13.7225 16.3321 14.134 17.238Z" fill="var(--fill-0, #008CFF)"/>
<path id="Vector_4" d="M26.6472 16.3742L26.6459 16.3963C26.5561 17.2273 26.1799 17.9985 25.5847 18.5617C24.9887 19.1255 24.2136 19.4405 23.4063 19.4405H22.2279V21.6763H20.2683V19.4405H19.1172C18.3099 19.4405 17.5347 19.1255 16.9388 18.5617C16.3437 17.9985 15.9685 17.2271 15.8789 16.3963L15.8307 15.9536H18.0027L18.0703 16.27C18.1263 16.5329 18.2641 16.7637 18.4557 16.9263C18.6467 17.0881 18.8799 17.1734 19.1172 17.1737H23.4805C23.7181 17.1735 23.9521 17.0884 24.1432 16.9263C24.3297 16.7681 24.4635 16.5449 24.5221 16.2909C24.5271 16.2108 24.5272 16.1299 24.5208 16.05L24.5195 16.0343V16.0187C24.5196 15.8599 24.49 15.7029 24.4323 15.5578C24.3747 15.4128 24.2915 15.2825 24.1875 15.175C24.0836 15.0675 23.9613 14.9851 23.8295 14.9302C23.6977 14.8754 23.5579 14.8497 23.418 14.8533H19.0065C18.1367 14.8533 17.3067 14.4859 16.6992 13.8416C16.3988 13.5229 16.1615 13.1456 16 12.7323C15.8412 12.3257 15.7605 11.891 15.7579 11.4523L15.7565 11.4536V11.1541C15.822 10.3016 16.1881 9.50092 16.7877 8.91455C17.3883 8.32752 18.1805 7.99784 19.0065 7.99788H20.2683V5.73356H22.2279V7.99788H23.2956C24.1215 7.99792 24.9127 8.32765 25.5131 8.91455C26.1128 9.50093 26.4788 10.3015 26.5443 11.1541L26.5768 11.5838H24.4101L24.3581 11.2466C24.3145 10.9683 24.1792 10.7196 23.9831 10.5435C23.8365 10.4118 23.6629 10.3265 23.4805 10.2922L23.2956 10.2752H18.9896C18.7347 10.2649 18.4811 10.3529 18.2773 10.5291C18.0773 10.7024 17.9393 10.9496 17.8919 11.2283C17.8892 11.2878 17.8884 11.3473 17.8919 11.4067L17.8932 11.4211V11.4354C17.8913 11.5953 17.9197 11.7534 17.9765 11.9002C18.0333 12.0471 18.1172 12.1791 18.2213 12.2883C18.3255 12.3972 18.448 12.4812 18.5807 12.5369C18.7132 12.5925 18.8539 12.6188 18.9948 12.6151H23.3607C24.1385 12.5978 24.8928 12.8807 25.4831 13.4054H25.4817C25.8471 13.7261 26.1404 14.1265 26.3412 14.5773C26.542 15.0285 26.6459 15.5202 26.6472 16.0174V16.3742Z" fill="var(--fill-0, #242424)" stroke="var(--stroke-0, #242424)" stroke-width="0.8"/>
</g>
<defs>
<clipPath id="clip0_2_18">
<rect width="28" height="28" fill="white"/>
</clipPath>
</defs>
</svg>
